<svg xmlns="http://www.w3.org/2000/svg" xmlns:xlink="http://www.w3.org/1999/xlink" id="Layer_1" viewBox="0 0 256.58 242"><defs><style> .st0 { fill: #8faacd; } .st1 { fill: #fff; } .st2 { fill: #ea7685; } .st3 { fill: #135c9f; } .st4 { fill: #e55164; } .st5 { fill: #e13046; } .st6 { fill: #f0a3ae; } </style></defs><path class="st5" d="M72.98,132.51c-.1-.1-.1-.3-.1-.4-.4-.4,0-1-.4-1.5-1.2-5.7-2.4-11.4-3.6-17.1-1.1-5.2-2.3-10.4-3.4-15.7-1.6-7.3-3.1-14.7-4.6-22-.2-.9-.5-1.9-.8-2.8-.6-2.1-2.7-3.6-5.1-3.7-2.4,0-4.1,1.1-5.2,3.2-.5.9-.7,2-.9,3-1.2,5.9-2.5,11.9-3.7,17.8-1.2,5.9-2.4,11.7-3.6,17.6-.1.4-.1.8-.2,1.2-.3,1-.4,1.2-1.5,1.2H14.58c-.8,0-1.3-.2-1.7-1-.6-1.4-1.3-2.7-1.9-4.1-1.3-3.4-2.5-6.7-3.4-10.2-1-4.1-1.7-8.3-2.1-12.5-.4-5.2-.3-10.4.5-15.5.4-2.4.8-4.7,1.3-7.1,1.7-7.7,4.8-14.9,8.8-21.7,3.7-6.1,8.1-11.6,13.4-16.5,7.5-6.9,16.1-12,25.8-15.1,4.2-1.3,8.5-2.2,12.8-2.8,4.6-.6,9.1-.6,13.6-.3,4.3.3,8.6,1,12.8,2.1,5.9,1.5,11.6,3.6,17,6.3,5.9,2.8,11.3,6.2,16.6,9.9.2.1.4.3.6.4,1.2.7,1.5,1.6,1.2,3-1.1,6.1-2.1,12.3-3.2,18.4-1,5.8-2.1,11.6-3.2,17.4-.7,3.8-1.3,7.6-1.9,11.3-1.2,7.1-2.5,14.1-3.7,21.2-.9,5.2-1.8,10.4-2.7,15.6-.2,1.1-.3,1.2-1.4,1.3h-29.2c-.8,0-1.6,0-2.4.2-2,.5-3.5,1.6-4.1,3.6-.8,2.4-1.5,4.7-2.2,7.1-.8,2.4-1.5,4.9-2.3,7.3-.2.2.3,1.2-.6.9Z"></path><path class="st5" d="M159.28,160.41c-.5-2.9-1-5.8-1.4-8.7-.9-5.9-1.7-11.8-2.6-17.8-.8-5.4-1.5-10.8-2.3-16.1-.6-3.7-1.2-7.4-1.7-11.1-.4-2.4-.7-4.9-1-7.4-.8-5.9-1.7-11.7-2.6-17.5-.8-5.6-1.7-11.2-2.5-16.8-.6-3.9-1.1-7.9-1.7-11.8-.7-4.6-1.4-9.1-2.1-13.7-.5-3.6-1.1-7.1-1.6-10.6-.1-.3,0-.6-.1-.9-.2-1,.1-1.9.9-2.5.9-.7,1.7-1.5,2.5-2.2,5.1-4.4,10.6-8.2,16.7-11.1,5.5-2.6,11.3-4.4,17.4-5.1,2.9-.4,5.7-.5,8.6-.4,5,.3,10,1.2,14.8,2.9,12.4,4.4,22.2,12.3,30.2,22.6,3.9,5.1,7.1,10.6,9.7,16.4,3,6.7,4.9,13.6,6.1,20.8.7,4.6.8,9.2.8,13.9s-.7,9.6-1.7,14.2c-1.2,5.2-2.9,10.3-5.2,15.1-.3.7-.8,1-1.5.9h-64.2c-1,0-2.1-.1-3.1.3-2.2.8-3.6,2.4-4,4.7-.7,3.8-1.3,7.6-1.9,11.3-.6,3.7-1.3,7.4-1.9,11.1-.8,4.8-1.6,9.6-2.4,14.4-.3,1.7-.7,3.4-1,5.2-.6.2-.9.2-1.2-.1Z"></path><path class="st3" d="M65.28,173.81c-.9-1.4-2.2-2.2-3.4-3.3-8.9-8-17.3-16.4-25.2-25.3-5.1-5.8-10-11.8-14.5-18.1-.4-.5-.7-1.1-1.1-1.6-.1-.1,0-.3,0-.6.8,0,1.5-.1,2.3-.1h21.3c.8,0,1.6.1,2.4-.2,2.3-.8,3.8-2.2,4.3-4.7.9-4.8,1.9-9.5,2.9-14.3.1-.7.3-1.4.5-2.1.6.3.6.9.7,1.4,1.3,5.9,2.5,11.7,3.7,17.6,1.2,5.7,2.4,11.4,3.6,17.1,1,4.8,2.1,9.7,3.2,14.5.2,1.2.4,2.4.7,3.5.6,2.8,3.7,5.3,7.2,4.1,1.8-.6,3.1-1.9,3.7-3.8.8-2.6,1.6-5.2,2.4-7.8,1.7-5.4,3.3-10.8,5-16.2.8-2.6,1.5-5.2,2.3-7.8.4-1.3.5-1.4,1.8-1.4h30c.8,0,1.6,0,2.4-.2,2.4-.8,3.8-2.4,4.2-4.8.3-1.6.5-3.3.8-5,.7-4.7,1.5-9.5,2.2-14.2.7-4.6,1.4-9.3,2.1-14,.9-5.6,1.7-11.2,2.6-16.8.1-.6.3-1.1.4-1.6.2-.2.3-.2.4,0,1.1,7.9,2.3,15.8,3.4,23.7.7,4.5,1.4,9,2,13.5.6,4.3,1.2,8.7,1.9,13,.6,4.2,1.3,8.4,1.9,12.5,1.2,8.5,2.5,16.9,3.7,25.4.9,5.9,1.7,11.9,2.6,17.8.6,4,1.3,8,1.9,12,.4.8-.1,1.7.4,2.4h0c.2.2.3.4.3.6-2.8,5.2-6.4,9.7-10.2,14.1s-7.7,8.7-12.3,12.4c-3.2,2.5-4.2,2.6-7.2,0-8-6.7-14.6-14.7-20.6-23.3-4.2-6-8.7-11.7-15.5-15-3.9-1.9-8-2.8-12.3-2.8-3,.5-6,.6-8.9-.6Z"></path><path class="st1" d="M65.28,173.81c3.2.1,6.4.3,9.6.5,7.9.3,14.7,3.3,20.3,8.9,2.8,2.9,5.3,6,7.4,9.3,2.6,4,5.7,7.7,8.8,11.3,2.7,3.2,5.6,6.3,8.8,9.2,1.5,1.4,3.1,2.8,4.8,4,.8.6,1.6.7,2.4,0,1.5-1.2,3-2.3,4.4-3.6,6.4-5.9,12-12.6,17.1-19.6,1.1-1.5,2-3,3.1-4.6,1.8-1.3,4.2-2,4.3-4.8h0c.2-.1.4-.3.5-.5h0c.2-.1.4-.3.5-.5h0c.2-.1.4-.3.5-.5h0c.2-.1.4-.3.5-.5h0c2.7-1,5.4-2,6.7-4.8h0c2.3.7,3.7-.4,4.7-2.4,1.4-1.1,3.1-1.4,4.7-1.4,4.4-.2,8.8-.8,13.3-.5,2.9,2.9,5.9,1,8.8-.1,2.1-.7,4-.8,6.2-.6,5,.4,5.4,4,6.5,7.4h0c-.3.2-.2.7-.5,1h0c-.2.2-.3.3-.5.5h0c-1.9.5-3.9.8-4.8,2.9h-.4c-.7.5-1.7-.1-2.4.5h-.9c-3.2-.5-6.2-.1-9,1.4-.1.1-.3.2-.4.1-2.6-1.3-4.6.7-6.9,1.3h-.9c-.6.5-1.4-.1-2,.4h-.9c-.7.6-1.8-.4-2.4.5h0c-.4.3-.9.2-1.4.2-.9,0-2.1-.2-2.1,1.2s.7,2.2,2.1,2.5c.6.1,1.3,0,1.9-.1,4-.8,8.2-.9,12.1-2.5,1.3-.5,2.7-.5,4.2-.4,2.3.2,4.6-.3,6.8-1.1,1.4-.5,2.7-.9,4.2-.9,2.2,0,3.9-.9,4.4-3.2h0c.2-.1.4-.3.5-.5h0c2.3-.9,3.7-2.4,3.8-5,.1-1,.1-1.9-.6-2.6-.7-.7-.7-1.4.2-2h0c.2-.1.4-.3.5-.5h0c1.4-.1,2.4-.6,3.5-1.7,1.2-1.2,2.5-2.5,4.1-3.2,1.9-.9,1.9-2.5,2-4.2h0c.3-.2.2-.7.5-1h0c3-2.9,3.5-7,5.2-10.4,1.5-3,4-6,7.2-8.1.4-.3.8-.4,1.3,0,2.3,1.6,3.3,5,2,7.5-.2.4-.5.8-.3,1.1.9,2-.5,4.1,0,6.1h0c-2.2,3.9-2.2,8.4-3.2,12.6-.3,1.2.9,2.1.3,3.2h0c-.7,1-1.7,1.7-2.6,2.5-1.5,1.3-2.6,2.7-2.7,4.7h0c-.2.1-.4.3-.5.5h0c-.2.1-.4.3-.5.5h0c-.2.1-.4.3-.5.5h0c-.2.1-.4.3-.5.5h0c-.2.1-.4.3-.5.5h0c-.2.1-.4.3-.5.5h0c-.2.1-.4.3-.5.5h0c-.2.1-.4.3-.5.5h0c-.2.1-.3.3-.5.5h0c-.2.1-.4.3-.5.5h0c-4.4,1.4-7.5,4.2-9.1,8.6h0c-.2.1-.4.3-.5.5h0c-.2.1-.4.3-.5.5h0c-.2.1-.4.3-.5.5h0c-.2.1-.4.3-.5.5h0c-.2.1-.4.3-.5.5h0c-.2.1-.4.3-.5.5h0c-.2.1-.4.3-.5.5h0c-.2.1-.4.3-.5.5h0c-.2.1-.4.3-.5.5h0c-.2.1-.4.3-.5.5h0c-.2.1-.4.3-.5.5h0c-.2.1-.4.3-.5.5h0c-.2.1-.4.3-.5.5h0c-.2.1-.4.3-.5.5h0c-.2.1-.4.3-.5.5h0c-.2.1-.4.3-.5.5h0c-.2.1-.4.3-.5.5h0c-.2.1-.4.3-.5.5h0c-.2.1-.4.3-.5.5h0c-.2.1-.4.3-.5.5h0c-.2.1-.4.3-.5.5h0c-.2.1-.4.3-.5.5h0c-.2.1-.4.3-.5.5h0c-.2.1-.4.3-.5.5h0c-.2.1-.4.3-.5.5h0c-3,.7-5.7,1.9-8.2,3.8h-.9c-.6.5-1.4-.1-2,.4h-.4c-2.3-.9-4.7,1.5-7.1,0-2.3,2.3-5.2-.5-7.5,1-1.3.8-2.7,1.3-4.2,1.5h-.9c-.6.5-1.4-.1-2,.5h0c-1.9-.4-3.6-.2-4.8,1.4h0c-1.7-.1-2.9.5-3.8,1.9h0c-1.4.7-3,.8-4.4,1.8s-2.4,1.9-2.8,3.6h0c-.2.1-.4.3-.5.5h0c-.2.1-.4.3-.5.5h0c-.2.1-.4.3-.5.5h0c-.2.1-.4.3-.5.5h0c-.2.1-.4.3-.5.5h0c-.2.1-.4.3-.5.5h0c-3,.7-4,3.5-5.8,5.4-1.3,1.4-2.4,1.5-3.6.2-1.4-1.5-3-2.5-5.1-2.7h0c-.1-.2-.3-.3-.5-.5h0c-.1-.2-.3-.3-.5-.5h0c-.1-.2-.3-.3-.5-.5h0c-.1-.2-.3-.3-.5-.5h0c-.1-.2-.3-.3-.5-.5h0c-.1-.2-.3-.4-.5-.5h0c-.1-.2-.3-.4-.5-.5h0c-.1-.2-.3-.4-.5-.5h0c-.1-.2-.3-.4-.5-.5h0c-.1-.2-.3-.4-.5-.5h0c-.1-.2-.3-.4-.5-.5h0c-.1-.2-.3-.4-.5-.5h0c-.1-.2-.3-.4-.5-.5h0c-.1-.2-.3-.4-.5-.5h0c-.1-.2-.3-.4-.5-.5h0c-.1-.2-.3-.4-.5-.5h0c-.1-.2-.3-.4-.5-.5h0c-.1-.2-.3-.4-.5-.5h0c-.1-.2-.3-.4-.5-.5h0c-.1-.2-.3-.4-.5-.5h0c-.1-.2-.3-.4-.5-.5h0c-.1-.2-.3-.4-.5-.5h0c-.1-.2-.3-.4-.5-.5h0c-.1-.2-.3-.4-.5-.5h0c-.1-.2-.4-.4-.6-.5-2.1,1.5-3.8,3.4-5.7,5.1-4.1,4-8.1,8-12.1,12-.4.4-.8.8-1.2,1.1-.2.2-.5.1-.6,0-.4-.4-.8-.8-1.2-1.2-1.8-2.2-3.4-4.4-5.2-6.5-2.2-2.5-4.7-4.8-7.4-6.8-1.7-1.3-3.4-2.4-5.2-3.4-1.7-1-3.6-1.8-5.5-2.2-3.3-.8-6.7-1.3-10.1-1.6-2.1-.1-4.1-.6-6.2-.8-1.6-.2-3.2-.3-4.8-.5-2.7-.4-5.3-.9-8-1.5-1.2-.3-2.4-.8-3.6-1.3-.9-.4-1.6-1.1-2.2-1.8-3.4-3.4-6.8-6.8-10.2-10.2-4.5-4.4-9.1-8.8-13.6-13.2-1.9-1.8-3.8-3.7-5.4-5.8-1.3-1.8-2.2-3.6-2.6-5.8-.5-2.8-.8-5.7-1.7-8.4-.2-4-1.6-7.8-1.6-11.8,0-1.3-.4-2.5-.4-3.8,0-1.1.2-2.2.5-3.3.3-1.2,1-1.6,2.2-1.8,2.1-.3,3.7.5,5.2,1.9,2,1.8,3.3,4.1,4.5,6.4,1.7,3.4,3.2,6.8,4.4,10.3.7,2.1,2.1,3.7,3.9,5.1,2.4,1.9,4.7,3.9,6.9,5.9.5.5.7,1,.7,1.7,0,.5-.1,1,0,1.4.1,3.6,1.6,6.4,4.9,8.1,1.4.8,2.9,1.2,4.5,1.4,4,.6,8,1.4,12,2.1,3.4.6,6.9,1.1,10.4,1.7,1.3.2,2.5.5,3.8.7,1.1.2,1.5,0,1.7-1,.2-.6-.1-1-.6-1.1-1.6-.3-3.3-.7-4.9-1-3.7-.5-7.4-1.3-11.1-1.8-3.6-.5-7-1.3-10.6-1.7-2.3-.2-4.5-1-6.2-2.9-2.8-3.1-1.7-8.3,2.2-9.8.2-.1.5-.1.7-.1,1.8,0,3.7-.1,5.5.1,3.3.5,6.6,1.2,9.9,1.7,2,.1,3,0,3.9,0Z"></path><path class="st3" d="M187.98,173.71c-2.6.2-5.2.4-7.8.4-3.7,0-7.2.5-10.8,1.4-.2,0-.3,0-.3-.1s.1-.2.1-.2c.8-4.7,1.6-9.4,2.4-14.1.8-4.7,1.6-9.4,2.4-14.1.7-4.4,1.5-8.8,2.2-13.2.4-2.5.9-5,1.3-7.5.2-1.2.3-1.3,1.6-1.3h53.1c.3.8-.2,1.2-.5,1.6-5.2,7.2-10.8,14.1-16.7,20.6-8.1,9-16.7,17.4-25.7,25.4-.3.3-.6.6-.9.8,0,.2-.2.3-.4.3Z"></path><path class="st1" d="M209.08,184.31c.5,2,.4,2.1-1.2,3-1,.5-2,1-3.2.8-1.1-.1-2.1,0-3,.5-2.1.9-4.2,1.4-6.5,1.5-.4,0-.8.2-1.1.3-.3,0-.8.1-.9,0-.9-.8-1.7-.5-2.5.1-1.3-.1-2.3.5-3.4,1-.5.2-1.1.4-1.6.5-3.1.1-6.1.7-9.2,1.4-2.3.5-4.2-1.8-3.9-3.9.2-1.1,1.2-1.8,2.2-1.2.7.4,1.4.3,2.1.4-.4.5-1,.4-1.5.5-.3.1-.6.3-.6.7,0,.5,0,1.1.6,1.5.2.1.5.1.7,0,5.2-.9,10.3-1.8,15.5-2.7,4-.7,8-1.3,12-2,1-.2,2-.5,2.9-1,.9-.5,1.8-.9,2.6-1.4Z"></path><path class="st1" d="M238.88,159.91c0-.6-.2-1-.5-1.5-.8-1-.7-1.5.3-2.4.5-.5.3-.7-.1-1.1-.9-.9-.8-1.6,0-2.5.3-.3.6-.5.9-.8.5-.5.6-2,.1-2.5-.5-.6-1.3-.9-1.6-1.7-.3-.7-.7-1.4-1.1-2.2-1.1.9-2.1,1.8-3.1,2.6-.4.3-.6.7-.9,1.1-.3.5-.7,1.1-1,1.6-.6,1-1.3,1.8-2.4,2.2-.2.1-.5.3-.4.5.3,1.3-.5,2.3-.7,3.5-.2,1.7-1.1,3.1-1.9,4.6-.3.6-.8,1.2-1.6,1.4-.6.1-.8.8-1.3,1v-.5c1.9-5.1,3.9-10.1,6.9-14.6.9-1.4,2.2-2.5,3.6-3.4s2.9-.7,4.4-.5c.6.1,1.1.6,1.3,1.2.3.8.6,1.6.6,2.5,0,1.2.1,2.4,0,3.6-.3,2.5-.5,5-1.1,7.5-.1.2-.3.3-.4.4Z"></path><path class="st1" d="M187.98,173.71c.1-.2.2-.4.5-.4.3.5.8.5,1.3.4,3.2-.5,6.4-1.1,9.6-1.7,2-.3,4-.3,6-.1,1.3.1,2.3,1,3.2,2,1,1,1.1,2.3,1.4,3.5.2,1-.2,1.9-.8,2.6-.9-.7-1.7-1.4-1.5-2.8.1-.6-.2-1.1-.6-1.5-.7-.7-1.3-1.4-1.5-2.4-.7.1-1.2.3-1.8.3-.9.1-1.8,0-2.3-.9-.4-.6-.9-.6-1.5-.5s-1.2.3-1.9.4c-.2,0-.6.1-.6.2-.4,1.3-1.5,1.2-2.5,1.3-.4,0-.7.4-1.1.5-.7.3-1.3.6-2,.8-1.2.2-2.4.3-3.1-1-.2-.2-.5-.4-.8-.7Z"></path><path class="st1" d="M138.58,229.91c1.7-.8,3.1-.2,4.2,1.1.6.6,1.2,1.3,1.9,1.8.6.5,1.2.5,1.6-.2.5-.8.9-1.7,2-2,.2,0,.3-.4.4-.6.2-.5.2-.9.4-1.4s.5-1,1.1-1.2c.5-.2,1-.5,1.6-.2.5.3.9-.1,1.4-.3-.2.9-.9,1.5-1.5,2.1-1.9,2.1-3.8,4.3-5.4,6.7-.5.8-.9.8-1.5.2-2.2-1.9-4.4-3.7-6.2-6Z"></path><path class="st1" d="M235.98,175.71c-.1-.3-.2-.7-.4-.8-.9-.7-.8-1.5-.4-2.5.4-1.1.9-2.4.5-3.6,0-.1-.1-.4-.1-.5,1.1-1.3.3-3,.8-4.5.2-.7.5-1.4,1.1-1.7.7-.4.8-.8.6-1.6-.1-.5.4-.5.8-.6.1,1.9-.4,3.8-.7,5.6-.5,3.1-1.1,6.2-1.7,9.3-.1.4-.3.7-.5.9Z"></path><path class="st1" d="M174.58,215.01c.3-.5.8-.5,1.3-.5.6,0,1.1-.2,1.4-.7,1-1.5,2.6-1.3,4.1-1.6.7-.2,1.1.5,1.5,1s.8.4,1.2,0c.3-.3.5-.7.8-.9.8-.8,1.6-.8,2.5.1.1.1.2.3.3.4.5.4.9.5,1.2,0,.4-.5.8-.9,1.4-1.2.5-.2,1-.3,1.3.2.4.7,1,1,1.8.9-.2.1-.4.3-.6.4-1.8.2-3.6.5-5.4.6-1.4.1-2.7.3-4,.5-2,.3-4.1.3-6.1.7-.9.1-1.8.1-2.7.1Z"></path><path class="st1" d="M222.98,164.71c.3.6.6,1.1.5,1.8-.1,1.2-.5,2.2-1.7,2.6-1,.4-1.8,1-2.4,1.8-.2.3-.5.7-.9.8-1,.3-1.6.8-2,1.8-.3.7-1.2,1-2.1.8-.4-.1-.7-.3-1.1-.5.4-.8,1.1-1.3,1.8-1.9,1.6-1.3,3.2-2.6,4.8-3.9,1.2-1,2.3-2.1,3.1-3.3Z"></path><path class="st1" d="M216.88,196.41c-.1-.3-.1-.6-.2-.9-.2-.4-.2-.8.1-1.1,1.2-1.4,2.1-3,3.7-4,.8-.5,1.4-1.2,2.1-1.9,1-1,2.1-1.4,3.4-.8-1.9,2.4-4.2,4.4-6.4,6.4-.8.9-1.5,1.9-2.7,2.3Z"></path><path class="st1" d="M183.28,187.71c.7-.6,1.6-.9,2.3-1.6s1.8-.8,2.9-.8c.6,0,.9.6,1.5.7.7.1.7-.8,1.3-.9.1,0,.4-.1.5,0,.8.5,1.4,0,1.9-.5s1.1-.6,1.7-.4c.2.1.5.2.7.1,1.4-.8,2.5.2,3.7.7-1.2.7-2.6.6-3.9.9-3.6.8-7.2,1-10.8,1.9-.7,0-1.3-.1-1.8-.1Z"></path><path class="st1" d="M212.98,174.31c-.2.6-.6,1.2.2,1.6.3.1.5.4.7.6.4.4.5.8.4,1.3s-.4.9-.3,1.4c.1,1.5-.6,2.5-1.5,3.6-.7.9-1.4,1.2-2.4,1.1h-.5c.2-.3.3-.6.5-.8,1.6-2,2.3-4.3,2-6.9v-1.2c.1-.5.5-.7.9-.7Z"></path><path class="st1" d="M230.78,183.01c-.1-.3-.1-.6-.2-.9-.5-1-.1-1.9.5-2.4,1.3-.9,2.1-2.3,3.5-3.1.5-.3,1-.5,1.5-.8-.3,2.1-1.9,3.6-3.1,5.1-.6.8-1.3,1.6-2.2,2.1Z"></path><path class="st1" d="M155.88,224.21c0-.6-.5-1.2-.1-1.8.4-.7.9-1.3,1.7-1.6.2-.1.5-.2.6-.3,1.4-1.5,3.1-1.8,5-1.6-.3.3-.5.6-.8.8-1.8,1-3.4,2.2-4.9,3.7-.5.4-.9.7-1.5.8Z"></path><path class="st1" d="M196.68,212.11c.4-.4,1-.6,1.2-1.1,1.1-2.2,3.4-2.2,5.3-2.7.5-.1,1.1,0,1.7,0-.2,1.1-1.2,1.5-2,1.8-2,1-4,1.9-6.2,2Z"></path><path class="st1" d="M164.98,177.61c.1,1.4-.5,2.4-1.7,3.1-.8.5-1.6,1-2.4,1.5-.8.4-1.7.2-2.6.2,1.7-2.3,4.1-3.7,6.7-4.8Z"></path><path class="st1" d="M156.38,184.31c.8,2,.6,2.5-1.1,3.4-.3.2-.8.3-1,.6-.5,1-1.4.9-2.2.9v-.5c.7-.3,1.1-.9,1.5-1.5.8-1.1,1.6-2.1,2.8-2.9Z"></path><path class="st1" d="M203.38,184.31c-.1-1.1.2-2,1.4-2.4.1,0,.3-.1.4-.2,1-.7,2-.7,3.1-.3-1.2,1.9-2.9,2.6-4.9,2.9Z"></path><path class="st1" d="M169.28,175.21c.1.1.2.1.1.3,0,.2-.1.5-.1.7-.3,2-1.5,2.7-3.3,1.9-.4-.2-.7-.4-1.1-.5.6-.7,1.4-1,2.2-1.2.9-.3,1.6-.7,2.2-1.2Z"></path><path class="st1" d="M166.88,217.01c.2-.4.4-.9.6-1.2.9-1.4,1.9-1.5,3.3-.5.2.2.6.2.8.4-.1.1-.2.2-.4.3-1.3.2-2.8.6-4.3,1Z"></path><path class="st1" d="M163.08,218.91c.1-.4.3-.9.5-1.3.3-1,.6-1.2,1.6-1.1.6.1,1.2.3,1.8.5-1.3.6-2.5,1.5-3.9,1.9Z"></path><path class="st1" d="M176.98,188.71c.1-.5.1-.9.8-.8.5.1,1.1.2,1.6.3-.6.7-1.5.4-2.4.5Z"></path><path class="st6" d="M160.18,161.81c0,.3,0,.6-.1.9,0,.1-.2.3-.3.3-.3.1-.5-.1-.5-.3-.1-.3,0-.6-.1-.9.4-.3.7-.3,1,0Z"></path><path class="st4" d="M160.18,161.81h-.9v-1.4h.9v1.4Z"></path><path class="st1" d="M152.08,188.71c-.6-.7-.5-1.6-.4-2.4.6.7.4,1.5.4,2.4Z"></path><path class="st2" d="M72.98,132.51c.3-.3.6-.6.9-.9.1.5,0,.9-.3,1.3-.1.2-.2.5-.5.2-.1-.1-.1-.4-.1-.6Z"></path><path class="st1" d="M200.48,184.81c.7-.8,1.6-.4,2.4-.5-.7.7-1.5.5-2.4.5Z"></path><path class="st1" d="M180.38,188.21c.5-.7,1.3-.4,2-.4-.6.5-1.3.4-2,.4Z"></path><path class="st1" d="M171.68,215.61c.5-.7,1.3-.4,2-.5-.5.6-1.3.4-2,.5Z"></path><path class="st1" d="M193.78,212.61c.5-.7,1.3-.4,2-.4-.6.6-1.3.4-2,.4Z"></path><path class="st0" d="M134.28,68.41h-.4v-.7c0-.1.2-.2.2-.4.1.1.2.3.2.4v.7Z"></path><path class="st2" d="M72.48,130.61c.5.4.5.9.4,1.5-.5-.4-.5-.9-.4-1.5Z"></path><path class="st1" d="M223.48,163.71c0,.4-.1.8-.5,1,.1-.4.1-.8.5-1Z"></path><path class="st1" d="M208.68,181.01c0-.4.1-.8.5-1,0,.5-.1.8-.5,1Z"></path><path class="st1" d="M228.78,184.91l.5-.5-.5.5Z"></path><path class="st1" d="M228.38,185.31l.5-.5-.5.5Z"></path><path class="st1" d="M214.88,198.31c.2-.2.3-.3.5-.5,0,.3-.2.4-.5.5Z"></path><path class="st1" d="M229.28,184.41l.5-.5-.5.5Z"></path><path class="st1" d="M209.58,183.91c-.2.2-.3.3-.5.5.2-.2.4-.4.5-.5Z"></path><path class="st1" d="M214.48,198.81c.2-.2.3-.3.5-.5-.2.2-.4.3-.5.5Z"></path><path class="st1" d="M213.98,199.31c.2-.2.3-.3.5-.5-.2.1-.4.3-.5.5Z"></path><path class="st1" d="M213.48,199.71c.2-.2.3-.3.5-.5-.2.2-.3.4-.5.5Z"></path><path class="st1" d="M212.98,200.21c.2-.2.3-.3.5-.5-.2.2-.3.4-.5.5Z"></path><path class="st1" d="M212.48,200.71c.2-.2.3-.3.5-.5-.1.2-.3.3-.5.5Z"></path><path class="st1" d="M211.98,201.21c.2-.2.3-.3.5-.5-.1.2-.3.3-.5.5Z"></path><path class="st1" d="M211.58,201.71c.2-.2.3-.3.5-.5-.2.1-.4.3-.5.5Z"></path><path class="st1" d="M211.08,202.11c.2-.2.3-.3.5-.5-.2.2-.3.4-.5.5Z"></path><path class="st1" d="M210.58,202.61c.2-.2.3-.3.5-.5-.1.2-.3.4-.5.5Z"></path><path class="st1" d="M210.08,203.11c.2-.2.3-.3.5-.5-.1.2-.3.3-.5.5Z"></path><path class="st1" d="M209.68,203.61c.2-.2.3-.3.5-.5-.2.1-.4.3-.5.5Z"></path><path class="st1" d="M209.18,204.11c.2-.2.3-.3.5-.5-.2.1-.4.3-.5.5Z"></path><path class="st1" d="M208.68,204.51c.2-.2.3-.3.5-.5-.2.2-.3.4-.5.5Z"></path><path class="st1" d="M208.18,205.01c.2-.2.3-.3.5-.5-.2.2-.3.4-.5.5Z"></path><path class="st1" d="M207.68,205.51c.2-.2.3-.3.5-.5-.1.2-.3.3-.5.5Z"></path><path class="st1" d="M207.28,206.01c.2-.2.3-.3.5-.5-.2.1-.4.3-.5.5Z"></path><path class="st1" d="M156.78,183.91c-.2.2-.3.3-.5.5.1-.3.3-.5.5-.5Z"></path><path class="st1" d="M229.78,183.91l.5-.5-.5.5Z"></path><path class="st1" d="M157.28,183.41c-.2.2-.3.3-.5.5.2-.2.4-.4.5-.5Z"></path><path class="st1" d="M230.28,183.41l.5-.5c-.2.2-.3.4-.5.5Z"></path><path class="st1" d="M206.78,206.51c.2-.2.3-.3.5-.5-.2.1-.4.3-.5.5Z"></path><path class="st1" d="M206.28,206.91c.2-.2.3-.3.5-.5-.2.2-.3.4-.5.5Z"></path><path class="st1" d="M205.78,207.41c.2-.2.3-.3.5-.5-.1.2-.3.3-.5.5Z"></path><path class="st1" d="M205.28,207.91c.2-.2.3-.3.5-.5,0,.3-.2.4-.5.5Z"></path><path class="st1" d="M204.88,208.41c.2-.2.3-.3.5-.5-.2.1-.4.3-.5.5Z"></path><path class="st1" d="M157.78,182.91c-.2.2-.3.3-.5.5.2-.2.3-.3.5-.5Z"></path><path class="st1" d="M158.28,182.41c-.2.2-.3.3-.5.5.2-.2.3-.3.5-.5Z"></path><path class="st1" d="M215.88,197.31c.2-.2.3-.3.5-.5-.2.2-.3.4-.5.5Z"></path><path class="st1" d="M208.18,181.51c.2-.2.3-.3.5-.5-.2.2-.3.3-.5.5Z"></path><path class="st1" d="M216.38,196.91c.2-.2.3-.3.5-.5-.1.2-.3.4-.5.5Z"></path><path class="st1" d="M227.88,185.81l.5-.5c-.2.2-.3.4-.5.5Z"></path><path class="st1" d="M213.48,173.81c-.2.2-.3.3-.5.5.1-.2.3-.3.5-.5Z"></path><path class="st1" d="M126.48,218.01c.3,0,.5.2.6.5-.2-.2-.4-.4-.6-.5Z"></path><path class="st1" d="M127.08,218.41c.2.2.3.3.5.5-.2-.1-.4-.3-.5-.5Z"></path><path class="st1" d="M127.58,218.91c.2.2.3.3.5.5-.2-.2-.4-.3-.5-.5Z"></path><path class="st1" d="M225.98,187.71l.5-.5-.5.5Z"></path><path class="st1" d="M127.98,219.41c.2.2.3.3.5.5-.2-.1-.4-.3-.5-.5Z"></path><path class="st1" d="M128.48,219.91c.2.2.3.3.5.5-.1-.2-.3-.4-.5-.5Z"></path><path class="st1" d="M128.98,220.31c.2.2.3.3.5.5-.2-.1-.3-.3-.5-.5Z"></path><path class="st1" d="M129.48,220.81c.2.2.3.3.5.5-.2-.2-.3-.3-.5-.5Z"></path><path class="st1" d="M129.98,221.31c.2.2.3.3.5.5-.2-.2-.4-.3-.5-.5Z"></path><path class="st1" d="M130.48,221.81c.2.2.3.3.5.5-.2-.2-.4-.4-.5-.5Z"></path><path class="st1" d="M130.88,222.31c.2.2.3.3.5.5-.1-.2-.3-.4-.5-.5Z"></path><path class="st1" d="M131.38,222.71c.2.2.3.3.5.5-.2-.1-.3-.3-.5-.5Z"></path><path class="st1" d="M131.88,223.21c.2.2.3.3.5.5-.2-.1-.4-.3-.5-.5Z"></path><path class="st1" d="M132.38,223.71c.2.2.3.3.5.5-.2-.2-.4-.3-.5-.5Z"></path><path class="st1" d="M132.78,224.21c.2.2.3.3.5.5-.1-.2-.3-.4-.5-.5Z"></path><path class="st1" d="M155.38,224.71c.2-.2.3-.3.5-.5-.1.1-.3.3-.5.5Z"></path><path class="st1" d="M133.28,224.61c.2.2.3.3.5.5-.1-.1-.3-.3-.5-.5Z"></path><path class="st1" d="M154.98,225.11c.2-.2.3-.3.5-.5-.2.2-.4.4-.5.5Z"></path><path class="st1" d="M227.38,186.31l.5-.5-.5.5Z"></path><path class="st1" d="M226.38,187.31l.5-.5-.5.5Z"></path><path class="st1" d="M133.78,225.11c.2.2.3.3.5.5-.1-.1-.3-.3-.5-.5Z"></path><path class="st1" d="M154.48,225.61c.2-.2.3-.3.5-.5-.2.2-.3.4-.5.5Z"></path><path class="st1" d="M134.28,225.61c.2.2.3.3.5.5-.2-.2-.3-.3-.5-.5Z"></path><path class="st1" d="M153.98,226.11c.2-.2.3-.3.5-.5-.2.2-.3.4-.5.5Z"></path><path class="st1" d="M134.78,226.11c.2.2.3.3.5.5-.2-.2-.4-.4-.5-.5Z"></path><path class="st1" d="M153.48,226.61c.2-.2.3-.3.5-.5-.1.2-.3.3-.5.5Z"></path><path class="st1" d="M135.18,226.61c.2.2.3.3.5.5-.1-.2-.3-.4-.5-.5Z"></path><path class="st1" d="M152.98,227.11c.2-.2.3-.3.5-.5-.1.1-.3.3-.5.5Z"></path><path class="st1" d="M135.68,227.01c.2.2.3.3.5.5-.1-.1-.3-.3-.5-.5Z"></path><path class="st1" d="M226.88,186.81l.5-.5-.5.5Z"></path><path class="st1" d="M136.18,227.51c.2.2.3.3.5.5-.2-.1-.3-.3-.5-.5Z"></path><path class="st1" d="M136.68,228.01c.2.2.3.3.5.5-.2-.2-.3-.3-.5-.5Z"></path><path class="st1" d="M137.18,228.51c.2.2.3.3.5.5-.2-.2-.3-.4-.5-.5Z"></path><path class="st1" d="M137.68,229.01c.2.2.3.3.5.5-.2-.2-.4-.4-.5-.5Z"></path><path class="st1" d="M138.08,229.41c.2.2.3.3.5.5-.1-.1-.3-.3-.5-.5Z"></path><path class="st1" d="M215.38,197.81c.2-.2.3-.3.5-.5-.2.2-.3.4-.5.5Z"></path></svg>