<svg xmlns="http://www.w3.org/2000/svg" xmlns:xlink="http://www.w3.org/1999/xlink" id="Layer_1" viewBox="0 0 662 272"><defs><style> .st0 { fill: #8faacd; } .st1 { fill: #aebbdb; } .st2 { fill: #ea7685; } .st3 { fill: #135c9f; } .st4 { fill: #e55164; } .st5 { fill: #85b5d3; } .st6 { fill: #e13046; } .st7 { fill: #f0a3ae; } </style></defs><path class="st6" d="M75.4,157.51c-.1-.1-.1-.3-.1-.4-.4-.4,0-1-.4-1.5-1.2-5.7-2.4-11.4-3.6-17.1-1.1-5.2-2.3-10.4-3.4-15.7-1.6-7.3-3.1-14.7-4.6-22-.2-.9-.5-1.9-.8-2.8-.6-2.1-2.7-3.6-5.1-3.7-2.4,0-4.1,1.1-5.2,3.2-.5.9-.7,2-.9,3-1.2,5.9-2.5,11.9-3.7,17.8-1.2,5.9-2.4,11.7-3.6,17.6-.1.4-.1.8-.2,1.2-.3,1-.4,1.2-1.5,1.2h-25.3c-.8,0-1.3-.2-1.7-1-.6-1.4-1.3-2.7-1.9-4.1-1.3-3.4-2.5-6.7-3.4-10.2-1-4.1-1.7-8.3-2.1-12.5-.4-5.2-.3-10.4.5-15.5.4-2.4.8-4.7,1.3-7.1,1.7-7.7,4.8-14.9,8.8-21.7,3.7-6.1,8.1-11.6,13.4-16.5,7.5-6.9,16.1-12,25.8-15.1,4.2-1.3,8.5-2.2,12.8-2.8,4.6-.6,9.1-.6,13.6-.3,4.3.3,8.6,1,12.8,2.1,5.9,1.5,11.6,3.6,17,6.3,5.9,2.8,11.3,6.2,16.6,9.9.2.1.4.3.6.4,1.2.7,1.5,1.6,1.2,3-1.1,6.1-2.1,12.3-3.2,18.4-1,5.8-2.1,11.6-3.2,17.4-.7,3.8-1.3,7.6-1.9,11.3-1.2,7.1-2.5,14.1-3.7,21.2-.9,5.2-1.8,10.4-2.7,15.6-.2,1.1-.3,1.2-1.4,1.3h-29.2c-.8,0-1.6,0-2.4.2-2,.5-3.5,1.6-4.1,3.6-.8,2.4-1.5,4.7-2.2,7.1-.8,2.4-1.5,4.9-2.3,7.3-.2.2.3,1.2-.6.9Z"></path><path class="st6" d="M161.7,185.41c-.5-2.9-1-5.8-1.4-8.7-.9-5.9-1.7-11.8-2.6-17.8-.8-5.4-1.5-10.8-2.3-16.1-.6-3.7-1.2-7.4-1.7-11.1-.4-2.4-.7-4.9-1-7.4-.8-5.9-1.7-11.7-2.6-17.5-.8-5.6-1.7-11.2-2.5-16.8-.6-3.9-1.1-7.9-1.7-11.8-.7-4.6-1.4-9.1-2.1-13.7-.5-3.6-1.1-7.1-1.6-10.6-.1-.3,0-.6-.1-.9-.2-1,.1-1.9.9-2.5.9-.7,1.7-1.5,2.5-2.2,5.1-4.4,10.6-8.2,16.7-11.1,5.5-2.6,11.3-4.4,17.4-5.1,2.9-.4,5.7-.5,8.6-.4,5,.3,10,1.2,14.8,2.9,12.4,4.4,22.2,12.3,30.2,22.6,3.9,5.1,7.1,10.6,9.7,16.4,3,6.7,4.9,13.6,6.1,20.8.7,4.6.8,9.2.8,13.9s-.7,9.6-1.7,14.2c-1.2,5.2-2.9,10.3-5.2,15.1-.3.7-.8,1-1.5.9h-64.2c-1,0-2.1-.1-3.1.3-2.2.8-3.6,2.4-4,4.7-.7,3.8-1.3,7.6-1.9,11.3-.6,3.7-1.3,7.4-1.9,11.1-.8,4.8-1.6,9.6-2.4,14.4-.3,1.7-.7,3.4-1,5.2-.6.2-.9.2-1.2-.1Z"></path><path class="st3" d="M67.7,198.81c-.9-1.4-2.2-2.2-3.4-3.3-8.9-8-17.3-16.4-25.2-25.3-5.1-5.8-10-11.8-14.5-18.1-.4-.5-.7-1.1-1.1-1.6-.1-.1,0-.3,0-.6.8,0,1.5-.1,2.3-.1h21.3c.8,0,1.6.1,2.4-.2,2.3-.8,3.8-2.2,4.3-4.7.9-4.8,1.9-9.5,2.9-14.3.1-.7.3-1.4.5-2.1.6.3.6.9.7,1.4,1.3,5.9,2.5,11.7,3.7,17.6,1.2,5.7,2.4,11.4,3.6,17.1,1,4.8,2.1,9.7,3.2,14.5.2,1.2.4,2.4.7,3.5.6,2.8,3.7,5.3,7.2,4.1,1.8-.6,3.1-1.9,3.7-3.8.8-2.6,1.6-5.2,2.4-7.8,1.7-5.4,3.3-10.8,5-16.2.8-2.6,1.5-5.2,2.3-7.8.4-1.3.5-1.4,1.8-1.4h30c.8,0,1.6,0,2.4-.2,2.4-.8,3.8-2.4,4.2-4.8.3-1.6.5-3.3.8-5,.7-4.7,1.5-9.5,2.2-14.2.7-4.6,1.4-9.3,2.1-14,.9-5.6,1.7-11.2,2.6-16.8.1-.6.3-1.1.4-1.6.2-.2.3-.2.4,0,1.1,7.9,2.3,15.8,3.4,23.7.7,4.5,1.4,9,2,13.5.6,4.3,1.2,8.7,1.9,13,.6,4.2,1.3,8.4,1.9,12.5,1.2,8.5,2.5,16.9,3.7,25.4.9,5.9,1.7,11.9,2.6,17.8.6,4,1.3,8,1.9,12,.4.8-.1,1.7.4,2.4h0c.2.2.3.4.3.6-2.8,5.2-6.4,9.7-10.2,14.1s-7.7,8.7-12.3,12.4c-3.2,2.5-4.2,2.6-7.2,0-8-6.7-14.6-14.7-20.6-23.3-4.2-6-8.7-11.7-15.5-15-3.9-1.9-8-2.8-12.3-2.8-3,.5-6,.6-8.9-.6Z"></path><path class="st1" d="M67.7,198.81c3.2.1,6.4.3,9.6.5,7.9.3,14.7,3.3,20.3,8.9,2.8,2.9,5.3,6,7.4,9.3,2.6,4,5.7,7.7,8.8,11.3,2.7,3.2,5.6,6.3,8.8,9.2,1.5,1.4,3.1,2.8,4.8,4,.8.6,1.6.7,2.4,0,1.5-1.2,3-2.3,4.4-3.6,6.4-5.9,12-12.6,17.1-19.6,1.1-1.5,2-3,3.1-4.6,1.8-1.3,4.2-2,4.3-4.8h0c.2-.1.4-.3.5-.5h0c.2-.1.4-.3.5-.5h0c.2-.1.4-.3.5-.5h0c.2-.1.4-.3.5-.5h0c2.7-1,5.4-2,6.7-4.8h0c2.3.7,3.7-.4,4.7-2.4,1.4-1.1,3.1-1.4,4.7-1.4,4.4-.2,8.8-.8,13.3-.5,2.9,2.9,5.9,1,8.8-.1,2.1-.7,4-.8,6.2-.6,5,.4,5.4,4,6.5,7.4h0c-.3.2-.2.7-.5,1h0c-.2.2-.3.3-.5.5h0c-1.9.5-3.9.8-4.8,2.9h-.4c-.7.5-1.7-.1-2.4.5h-.9c-3.2-.5-6.2-.1-9,1.4-.1.1-.3.2-.4.1-2.6-1.3-4.6.7-6.9,1.3h-.9c-.6.5-1.4-.1-2,.4h-.9c-.7.6-1.8-.4-2.4.5h0c-.4.3-.9.2-1.4.2-.9,0-2.1-.2-2.1,1.2s.7,2.2,2.1,2.5c.6.1,1.3,0,1.9-.1,4-.8,8.2-.9,12.1-2.5,1.3-.5,2.7-.5,4.2-.4,2.3.2,4.6-.3,6.8-1.1,1.4-.5,2.7-.9,4.2-.9,2.2,0,3.9-.9,4.4-3.2h0c.2-.1.4-.3.5-.5h0c2.3-.9,3.7-2.4,3.8-5,.1-1,.1-1.9-.6-2.6-.7-.7-.7-1.4.2-2h0c.2-.1.4-.3.5-.5h0c1.4-.1,2.4-.6,3.5-1.7,1.2-1.2,2.5-2.5,4.1-3.2,1.9-.9,1.9-2.5,2-4.2h0c.3-.2.2-.7.5-1h0c3-2.9,3.5-7,5.2-10.4,1.5-3,4-6,7.2-8.1.4-.3.8-.4,1.3,0,2.3,1.6,3.3,5,2,7.5-.2.4-.5.8-.3,1.1.9,2-.5,4.1,0,6.1h0c-2.2,3.9-2.2,8.4-3.2,12.6-.3,1.2.9,2.1.3,3.2h0c-.7,1-1.7,1.7-2.6,2.5-1.5,1.3-2.6,2.7-2.7,4.7h0c-.2.1-.4.3-.5.5h0c-.2.1-.4.3-.5.5h0c-.2.1-.4.3-.5.5h0c-.2.1-.4.3-.5.5h0c-.2.1-.4.3-.5.5h0c-.2.1-.4.3-.5.5h0c-.2.1-.4.3-.5.5h0c-.2.1-.4.3-.5.5h0c-.2.1-.3.3-.5.5h0c-.2.1-.4.3-.5.5h0c-4.4,1.4-7.5,4.2-9.1,8.6h0c-.2.1-.4.3-.5.5h0c-.2.1-.4.3-.5.5h0c-.2.1-.4.3-.5.5h0c-.2.1-.4.3-.5.5h0c-.2.1-.4.3-.5.5h0c-.2.1-.4.3-.5.5h0c-.2.1-.4.3-.5.5h0c-.2.1-.4.3-.5.5h0c-.2.1-.4.3-.5.5h0c-.2.1-.4.3-.5.5h0c-.2.1-.4.3-.5.5h0c-.2.1-.4.3-.5.5h0c-.2.1-.4.3-.5.5h0c-.2.1-.4.3-.5.5h0c-.2.1-.4.3-.5.5h0c-.2.1-.4.3-.5.5h0c-.2.1-.4.3-.5.5h0c-.2.1-.4.3-.5.5h0c-.2.1-.4.3-.5.5h0c-.2.1-.4.3-.5.5h0c-.2.1-.4.3-.5.5h0c-.2.1-.4.3-.5.5h0c-.2.1-.4.3-.5.5h0c-.2.1-.4.3-.5.5h0c-.2.1-.4.3-.5.5h0c-3,.7-5.7,1.9-8.2,3.8h-.9c-.6.5-1.4-.1-2,.4h-.4c-2.3-.9-4.7,1.5-7.1,0-2.3,2.3-5.2-.5-7.5,1-1.3.8-2.7,1.3-4.2,1.5h-.9c-.6.5-1.4-.1-2,.5h0c-1.9-.4-3.6-.2-4.8,1.4h0c-1.7-.1-2.9.5-3.8,1.9h0c-1.4.7-3,.8-4.4,1.8s-2.4,1.9-2.8,3.6h0c-.2.1-.4.3-.5.5h0c-.2.1-.4.3-.5.5h0c-.2.1-.4.3-.5.5h0c-.2.1-.4.3-.5.5h0c-.2.1-.4.3-.5.5h0c-.2.1-.4.3-.5.5h0c-3,.7-4,3.5-5.8,5.4-1.3,1.4-2.4,1.5-3.6.2-1.4-1.5-3-2.5-5.1-2.7h0c-.1-.2-.3-.3-.5-.5h0c-.1-.2-.3-.3-.5-.5h0c-.1-.2-.3-.3-.5-.5h0c-.1-.2-.3-.3-.5-.5h0c-.1-.2-.3-.3-.5-.5h0c-.1-.2-.3-.4-.5-.5h0c-.1-.2-.3-.4-.5-.5h0c-.1-.2-.3-.4-.5-.5h0c-.1-.2-.3-.4-.5-.5h0c-.1-.2-.3-.4-.5-.5h0c-.1-.2-.3-.4-.5-.5h0c-.1-.2-.3-.4-.5-.5h0c-.1-.2-.3-.4-.5-.5h0c-.1-.2-.3-.4-.5-.5h0c-.1-.2-.3-.4-.5-.5h0c-.1-.2-.3-.4-.5-.5h0c-.1-.2-.3-.4-.5-.5h0c-.1-.2-.3-.4-.5-.5h0c-.1-.2-.3-.4-.5-.5h0c-.1-.2-.3-.4-.5-.5h0c-.1-.2-.3-.4-.5-.5h0c-.1-.2-.3-.4-.5-.5h0c-.1-.2-.3-.4-.5-.5h0c-.1-.2-.3-.4-.5-.5h0c-.1-.2-.4-.4-.6-.5-2.1,1.5-3.8,3.4-5.7,5.1-4.1,4-8.1,8-12.1,12-.4.4-.8.8-1.2,1.1-.2.2-.5.1-.6,0-.4-.4-.8-.8-1.2-1.2-1.8-2.2-3.4-4.4-5.2-6.5-2.2-2.5-4.7-4.8-7.4-6.8-1.7-1.3-3.4-2.4-5.2-3.4-1.7-1-3.6-1.8-5.5-2.2-3.3-.8-6.7-1.3-10.1-1.6-2.1-.1-4.1-.6-6.2-.8-1.6-.2-3.2-.3-4.8-.5-2.7-.4-5.3-.9-8-1.5-1.2-.3-2.4-.8-3.6-1.3-.9-.4-1.6-1.1-2.2-1.8-3.4-3.4-6.8-6.8-10.2-10.2-4.5-4.4-9.1-8.8-13.6-13.2-1.9-1.8-3.8-3.7-5.4-5.8-1.3-1.8-2.2-3.6-2.6-5.8-.5-2.8-.8-5.7-1.7-8.4-.2-4-1.6-7.8-1.6-11.8,0-1.3-.4-2.5-.4-3.8,0-1.1.2-2.2.5-3.3.3-1.2,1-1.6,2.2-1.8,2.1-.3,3.7.5,5.2,1.9,2,1.8,3.3,4.1,4.5,6.4,1.7,3.4,3.2,6.8,4.4,10.3.7,2.1,2.1,3.7,3.9,5.1,2.4,1.9,4.7,3.9,6.9,5.9.5.5.7,1,.7,1.7,0,.5-.1,1,0,1.4.1,3.6,1.6,6.4,4.9,8.1,1.4.8,2.9,1.2,4.5,1.4,4,.6,8,1.4,12,2.1,3.4.6,6.9,1.1,10.4,1.7,1.3.2,2.5.5,3.8.7,1.1.2,1.5,0,1.7-1,.2-.6-.1-1-.6-1.1-1.6-.3-3.3-.7-4.9-1-3.7-.5-7.4-1.3-11.1-1.8-3.6-.5-7-1.3-10.6-1.7-2.3-.2-4.5-1-6.2-2.9-2.8-3.1-1.7-8.3,2.2-9.8.2-.1.5-.1.7-.1,1.8,0,3.7-.1,5.5.1,3.3.5,6.6,1.2,9.9,1.7,2,.1,3,0,3.9,0Z"></path><path class="st3" d="M573,99.21c-2-2.3-3.3-4.7-4.5-7.3-3.4-7.5-4.4-15.4-3.4-23.6.4-3,.9-6,1.8-8.9,3.4-10.3,9.8-18,19.7-22.6,6.3-2.9,13-3.6,19.9-2.3,6.3,1.2,11.7,4.1,16.4,8.4.3.3.5.6,1.1.6.3-.5.2-1.2.2-1.8V7.41c0-.6.4-.8.9-.9h16.3c.4,0,.8,0,1.2.1.3.1.6.3.6.6,0,.7.1,1.4.1,2.2v99.2c0,3.2.3,2.9-3,2.9h-15.1c-.7,0-1-.3-1-1.1v-5.8c0-.1-.1-.3-.2-.4-.2-.2-.5-.1-.6.1-.3.2-.6.6-.9.8-3.1,2.6-6.5,4.9-10.4,6.3-2.3.9-4.7,1.5-7.2,1.7-.7.1-.9-.2-.9-.8v-14.4c0-.5,0-1,.1-1.4,0-.4.2-.6.6-.6.5,0,1-.1,1.4-.1,8-.8,13.8-4.8,17-12.2,3-7,2.9-14.2-.3-21.1-2.4-5.1-6.5-8.6-12-10.3-4.1-1.2-8.2-1.3-12.3-.1-4.7,1.3-8.3,4.1-10.9,8.1-3.5,5.3-4.2,11.1-3.4,17.2.5,3.3,1.5,6.4,3.3,9.2.7,1.1,1.5,2.1,2.3,3,.1.2.3.4.2.6-.1.4-.5.4-.8.4h-14.6c-1.1,0-1.3.2-1.3,1.2v5.5c0,.8.1,1.3-.3,1.9Z"></path><path class="st3" d="M560.9,68.01c-.9-5.9-2.7-11.5-5.9-16.5-4-6.2-9.3-10.9-16-13.9-5.9-2.7-12.2-3.7-18.7-3.6-5.2.1-10.2,1-14.9,3-5.3,2.2-9.9,5.6-13.7,9.9-3.5,4-6.2,8.5-7.8,13.6-1,3.1-1.6,6.3-1.9,9.6-.7,7.5.2,14.9,3.6,21.7,6.2,12.8,16.7,19.9,30.7,21.6,5.5.7,11,.4,16.5-.7,9.5-1.9,17-6.7,22.7-14.4.2-.2.4-.5.5-.8.2-.3.1-.6-.2-.8-.2-.1-.4-.2-.6-.3-4.2-2-8.5-3.8-12.5-5.9-1.7-.9-2.8-.6-4.1.6-2.8,2.5-6.1,4.2-9.7,5-4.1,1-8.2,1.1-12.3.3-6.1-1.3-10.7-4.5-13.7-9.9-1-1.8-1.7-3.8-2.1-5.8-.2-1,0-1.2,1.1-1.2h58.3c1.3,0,1.4-.1,1.4-1.3-.2-3.5-.2-6.8-.7-10.2ZM541.1,64.41h-38.8c-.9,0-1.1-.3-.8-1,2.1-4.8,5.2-8.8,10.1-11,6-2.8,12.2-3.1,18.4-.8,5.7,2.1,9.7,6,11.8,11.8.3.8.2,1-.7,1Z"></path><path class="st6" d="M569,195.01v-69.3c0-.5-.3-.7-.8-.8h-15.6c-.4,0-.8,0-1.2.1-.3,0-.6.2-.6.6,0,.8-.1,1.6-.1,2.4v2.2c0,.7.1,1.4-.2,2.2-.8-.2-1.2-.8-1.7-1.3-5-4.4-10.8-7-17.4-7.8-6.2-.7-12.2.3-17.7,3.1-8.2,4.2-14,10.8-17.1,19.5-2.8,7.8-3.3,15.9-1.8,24.1,1.3,6.8,4.2,12.7,8.8,17.8,5.6,6.2,12.3,10.3,20.7,11.3s16-.9,22.7-6.1c1.1-.8,2.1-1.7,3.5-2.8,0,.9.1,1.3.1,1.8v4.3c0,1,.2,1.1,1.1,1.2h14.9c2.6-.1,2.4,0,2.4-2.5ZM550.7,168.21c-2,6.7-6.2,11.4-13,13.5-5.3,1.6-10.4,1.2-15.3-1.6-3.8-2.2-6.5-5.3-8.3-9.3-1.4-3-1.8-6.3-1.8-9.6s.3-6.5,1.8-9.6c2.9-6.3,7.6-10.3,14.6-11.4,5.2-.8,10,.1,14.4,3.1,4,2.8,6.6,6.6,7.8,11.4,1.1,4.5,1.1,9.1-.2,13.5Z"></path><path class="st6" d="M597.6,131.81c1-.2,1.4-.7,1.9-1.1,3-2.3,6.1-4.4,9.7-5.6,9.3-3.4,18-2.6,26,3.6,4.2,3.3,6.7,7.7,7.7,12.9.6,2.8.8,5.7.8,8.6v44.6c0,3,.2,2.8-2.7,2.8h-14.6c-.5,0-.7-.3-.7-.8v-31.9c0-4.3,0-8.6-.5-12.9-.3-2.2-.8-4.4-1.9-6.4-1.9-3.6-5.1-5.3-9-5.5-5.9-.4-10.3,2.3-13.3,7.3-2.1,3.4-2.9,7.1-3.1,10.9-.1,3.1-.2,6.2-.3,9.3v27.1c0,3.3.2,2.9-3,2.9h-14.4c-.3,0-.6-.2-.6-.6,0-.6-.1-1.1-.1-1.7v-96.8c0-1,.1-1.1,1.1-1.1h15.8c.9,0,1,.2,1.1,1.2v30.9c.1.5.1,1.3.1,2.3Z"></path><path class="st6" d="M374.7,151.51c-1.8-7.7-5.6-14.2-11.5-19.4-3.3-2.9-7.1-5.1-11.3-6.6-5.3-1.8-10.7-2.6-16.3-2.3-4.8.2-9.5,1.1-13.9,3.2-10.3,4.9-17.2,12.8-20.3,23.8-1.6,5.6-2,11.5-1.1,17.3.5,3.4,1.3,6.7,2.7,9.9,2.1,4.9,5.3,9.1,9.2,12.7,5.4,4.9,11.8,7.6,18.8,8.7,4.7.7,9.4.7,14.1.1,5.5-.7,10.8-2.3,15.5-5.3,4-2.5,7.2-5.7,10-9.5.4-.6.3-.8-.3-1.1-4-1.9-7.9-3.8-11.9-5.6-.9-.4-1.7-1.2-2.6-1s-1.5,1.1-2.3,1.7c-2.9,2.3-6,3.8-9.6,4.6-3.5.7-7,.7-10.5.2-3-.5-5.7-1.6-8.1-3.4-3.7-2.7-6-6.3-7.2-10.7-.6-2.2-.7-2.2,1.7-2.2h54.8c1.1,0,1.3-.2,1.3-1.3.1-4.7-.1-9.3-1.2-13.8ZM356.6,152.21h-35.9c-.6,0-1.2.1-2-.3,2.8-6.9,7.5-11.2,14.8-12.8,6-1.3,11.6-.4,16.7,3,3.4,2.2,5.8,5.2,7.2,9,.1.7,0,1-.8,1.1Z"></path><path class="st3" d="M264.3,60.21v-23c0-1.1.2-1.3,1.2-1.3h17c.7,0,.9.3,1,1.1v34.3c0,3.3-.1,6.6.4,9.8.2,1.4.3,2.9.6,4.3,1.1,5.1,4,8.8,9.2,10,5.1,1.2,9.9.6,13.8-3.2,2.4-2.3,3.5-5.3,3.9-8.6.4-2.9.4-5.9.4-8.9v-36.2c0-2.8-.2-2.6,2.6-2.6h15.6c.5,0,.9.3.9.9v34c0,6.6-.2,13.3-1.8,19.8-2.3,9.8-8.1,16.9-17.5,20.7-3.8,1.5-7.8,2.2-11.9,2.3-4.2.1-8.3-.1-12.4-1.1-7.5-1.8-13.4-5.9-17.4-12.5-2.6-4.1-4-8.6-4.6-13.5-.8-6-.9-12.1-1-18.2,0-2.6,0-5.3,0-8.1Z"></path><path class="st3" d="M360.1,43.31c2.3-1.9,4.6-3.6,7.1-5.1,5.1-3,10.5-4.6,16.5-4.2,8.1.5,14.8,3.8,19.7,10.4,2.1,2.9,3.3,6.2,3.9,9.7.5,2.9.7,5.9.7,8.8v25.6c0,.6-.3.8-1,.7-2.8-.3-5.6-.2-8.4.1-2.6.4-5.1,1.1-7.5,2.2-.5.3-1.1.7-1.8.6-.3-.8-.1-1.6-.1-2.3,0-6.4,0-12.8-.1-19.2,0-3-.4-6.1-.9-9.1-.6-3.2-2-6.1-4.8-8-1.7-1.2-3.5-1.9-5.5-2-6.5-.5-11.3,2.2-14.5,7.8-1.7,2.9-2.6,5.9-3,9.3-.5,4.1-.5,8.1-.5,12.2v28.3c0,2.7.2,2.7-2.5,2.7h-15.3c-1-.1-1.1-.2-1.2-1.1V38.81c0-3-.3-2.8,2.7-2.8h15.1c1.1.1,1.3.2,1.3,1.2v4.6c-.3.4-.4.9.1,1.5Z"></path><path class="st6" d="M468,148.51v-21.3c0-2.1,0-2.2,2.1-2.2h14.1c.4,0,.8,0,1.2.1.3,0,.6.3.6.6,0,.4.1.8.1,1.2,0,12.1,0,24.3-.1,36.4,0,4.6-.4,9.3-1.4,13.8-2.1,9-7.2,15.7-15.8,19.5-3.7,1.7-7.6,2.4-11.6,2.6-3.4.2-6.7.1-10-.5-8.9-1.5-15.7-6-20.1-14-2.4-4.4-3.4-9.1-3.9-14-.5-5.3-.5-10.7-.5-16v-29c0-.4.2-.7.7-.8h16.8c.5,0,.7.3.7.8v34.1c0,3.1.1,6.2.5,9.3.4,3.3,1.1,6.5,3.4,9,1.4,1.6,3.1,2.7,5.1,3.4,4.1,1.4,8,1,11.8-1.2,2.6-1.5,4.3-3.8,5.2-6.6.6-1.8.9-3.7,1-5.6.2-6.7.1-13.5.1-19.6Z"></path><path class="st3" d="M451.5,81.91v-27.3c0-2.2.1-2.1-2.1-2.1h-6.5c-.9,0-1.1-.2-1.1-1.1v-14.1c0-1,.2-1.2,1.3-1.2h6c.6,0,1.1,0,1.7-.1.4,0,.6-.2.6-.6V10.51c0-2.5-.1-2.3,2.3-2.3h15.8c.5,0,.9.3.9.8v24.7c0,2.4-.2,2.4,2.3,2.4h7.4c1.3,0,1.5.2,1.5,1.3v13.9c0,1.1-.2,1.2-1.3,1.3h-8.9c-.8,0-1,.2-1,1v55.4c0,3.2.4,2.9-3,2.9h-15.3c-.4,0-.7-.3-.7-.8v-1.9c.1-9.3.1-18.3.1-27.3Z"></path><path class="st6" d="M403.9,169.11v26.1c0,2.2.1,2.2-2,2.1h-14.1c-.5,0-1,0-1.4-.1-.4,0-.6-.3-.6-.6v-53.1c0-3.4.4-3.1-3-3.1-.9,0-1.8,0-2.6-.1-.4,0-.6-.3-.6-.6,0-.4-.1-.8-.1-1.2v-12.7c0-.6.4-.9.9-.9h4.3c.8-.1,1-.2,1.1-1,0-1.1.1-2.2.1-3.4,0-4,.2-8,.5-12,.3-4.5,2.2-8.1,6-10.7,1.2-.9,2.6-1.5,4.1-1.9,3.6-.9,7.2-1.2,10.9-.6,2.7.4,5.3,1.1,7.9,1.9.8.3,1.1.7,1.1,1.6v11.5c0,.9-.3,1.1-1.2.9-1.6-.4-3.3-.8-5-.8h-1.4c-3.3.4-4.5,1.5-4.6,4.7-.1,2.9,0,5.8,0,8.6,0,.8.2,1,1,1h9.3c.9,0,1.1.2,1.1,1.2v13.2c0,.9-.2,1.1-1.2,1.1h-8.4q-1.9,0-1.9,1.9c-.2,9.1-.2,18.1-.2,27Z"></path><path class="st3" d="M190.4,198.71c-2.6.2-5.2.4-7.8.4-3.7,0-7.2.5-10.8,1.4-.2,0-.3,0-.3-.1s.1-.2.1-.2c.8-4.7,1.6-9.4,2.4-14.1.8-4.7,1.6-9.4,2.4-14.1.7-4.4,1.5-8.8,2.2-13.2.4-2.5.9-5,1.3-7.5.2-1.2.3-1.3,1.6-1.3h53.1c.3.8-.2,1.2-.5,1.6-5.2,7.2-10.8,14.1-16.7,20.6-8.1,9-16.7,17.4-25.7,25.4-.3.3-.6.6-.9.8,0,.2-.2.3-.4.3Z"></path><path class="st6" d="M280.6,133.21c1.1-1.6,1.8-2.7,2.7-3.8,4.2-4.9,9.5-7.1,16-5.9,1.2.2,2.4.7,3.6,1.2.5.2.8.5.5,1.1-.5,1.2-.9,2.4-1.3,3.6-1.3,3.4-2.5,6.9-3.8,10.3-.3.9-.5,1-1.4.5-1.1-.5-2.2-.9-3.4-1-2.3-.2-4.2.5-5.8,2.2-1.5,1.6-2.5,3.5-3.2,5.6-.9,3.1-1.4,6.2-1.5,9.4-.1,3.5-.2,7-.2,10.5v28.3c0,2.1.1,2.2-2.1,2.2h-15.3c-.5,0-.8-.2-.8-.7v-69.3c0-2.6-.1-2.4,2.5-2.4h12.2c.7,0,1,.3,1,1.1v4.8c.2.6.2,1.2.3,2.3Z"></path><path class="st3" d="M435.2,73.91v35.2c0,2.8.2,2.6-2.5,2.6h-8.1q-1.9,0-1.9-1.8v-15.1c0-.8-.2-1.3-1.1-1.6-1.4-.4-2.7-.9-4.1-1.4-1.3-.4-1.3-.5-1.3-1.9v-51c0-3.2-.2-2.9,3-2.9h14.4q1.7,0,1.7,1.8v1.4c-.1,11.5-.1,23.1-.1,34.7Z"></path><path class="st3" d="M271.9,228.41c.8.4,1.4.3,1.9.3h14.6c.4,0,.7-.3.8-.8.3-2.3.7-4.6,1-6.9.5-3.5,1-7,1.4-10.4.1-.9.3-1,1.3-1h7.4c.8,0,1,.3.9,1-.3,2.7-.7,5.4-1.1,8.1-.7,5.5-1.5,10.9-2.2,16.4-.6,4.2-1.2,8.4-1.8,12.6-.4,2.8-.7,5.5-1.1,8.3-.1,1-.4,1.9-.4,2.8-.1,1.7-.4,1.8-2.1,1.7h-6.7c-.6,0-.9-.3-.9-.9s.1-1.3.2-1.9c.9-6.2,1.7-12.5,2.6-18.7,0-.3.1-.6,0-1,0-.4-.2-.6-.6-.6h-15.1q-1.5,0-1.8,1.6c-.3,1.9-.5,3.8-.7,5.7-.6,4.8-1.3,9.5-2,14.2,0,.3-.1.6-.2.9-.1.4-.4.7-.9.7h-7.9c-.6,0-.8-.3-.7-1,.2-1.7.5-3.5.7-5.2.5-3.9,1.1-7.8,1.6-11.6,1.1-8,2.1-16,3.2-24,.4-2.7.8-5.4,1.2-8.1.1-.9.3-1.1,1.3-1.1h7.2c1.1,0,1.3.2,1.1,1.3-.5,3.7-1,7.4-1.5,11.1-.2,2.2-.4,4.3-.7,6.5Z"></path><path class="st3" d="M581.1,222.71h-7.9c-.4,0-.7.3-.8.7-.1.5-.1,1-.2,1.4-.1.4-.1.8-.2,1.2-.1.4.1,1-.5,1.2-.5-.5-.9-.9-1.3-1.3-1.8-2-4.1-3.3-6.8-3.8-3.1-.6-6.1-.4-9,.7-8,2.9-12.6,8.8-14.1,17-1,5.8.4,11.3,4.1,16,1.7,2.2,3.8,3.9,6.5,4.7,5.5,1.7,10.6,1.2,15.1-2.5.3-.2.6-.5,1-.7,1.1-.2.7.5.6,1h0c0,.3-.1.6-.1.9,0,1,.1,1.2,1,1.2h7c1,0,1.1-.2,1.2-1.1.7-4.5,1.3-9,2-13.5.8-5.4,1.5-10.9,2.3-16.4.3-2,.6-4,.8-5.9,0-.4-.2-.8-.7-.8ZM566.1,250.41c-1.7,1.7-4.7,2.9-7.5,2.7-4.5.2-8.5-3-9.1-7.8-.7-5.2.7-9.7,5.1-12.9,3.6-2.6,7.5-2.9,11.5-.8,1.9,1,3.2,2.6,3.8,4.7,1.5,5.5.1,10.1-3.8,14.1Z"></path><path class="st3" d="M384.7,222.71h-6.5c-1.6,0-1.7.1-2,1.7-.1.5-.1,1-.2,1.4,0,.3-.1.6-.1,1,0,.1-.1.3-.3.3-.1,0-.3,0-.4-.1-.3-.3-.6-.7-.9-1.1-2.1-2.3-4.6-3.7-7.7-4-3-.4-5.9-.1-8.7,1-5,2-8.9,5.3-11.3,10.2-3.5,7.1-3.5,14.1.6,21,1.6,2.6,3.8,4.8,6.7,6,5.7,2.2,11.1,1.8,16-2,.5-.4.9-.9,1.6-1,.1.1.1.3.2.4.2.9-.8,2,.1,2.7.7.6,1.8.2,2.8.2h5c.8,0,1-.2,1.1-1,0-.2.1-.5.1-.7.9-6.2,1.7-12.5,2.6-18.7.4-3,.9-6,1.3-9,.3-2.4.6-4.7.9-7.1.1-1,0-1.2-.9-1.2ZM369,251.31c-3.2,2-6.6,2.4-10.1,1-3.2-1.3-4.9-3.8-5.3-7.1-.1-.7-.1-1.4-.1-2.1-.1-4.4,1.5-7.9,5-10.6,2.9-2.2,6.1-2.6,9.5-1.8,3.1.8,5.1,2.9,6,5.9,1.8,5.9-1.3,12.3-5,14.7Z"></path><path class="st3" d="M642.8,232.51c-1.8-4.1-4.6-7.3-8.8-9-6.4-2.6-12.7-2.3-18.6,1.3-5.5,3.3-8.9,8.1-10.2,14.4-.5,2.4-.4,4.8-.2,7.2.5,6.5,4.9,12.2,11.4,14.2,5.1,1.5,10.3,1.3,15.3-.4,3.2-1.1,6-3,8.3-5.5.5-.6.5-.9-.2-1.3-1.6-.9-3.3-1.6-4.9-2.6-1.6-1-3-1.4-4.4.2-3.5,2-7.1,2.8-11,1.4-3.4-1.2-5.3-3.9-5.3-7.7.8-.4,1.7-.2,2.6-.2h26.2c1,0,1.2-.2,1.2-1.1.4-3.8.1-7.5-1.4-10.9ZM634.2,237.41c-.5.1-.9.1-1.4.1h-16.1c-1,0-1.2-.3-.8-1.1,2.5-5.2,9.2-7.4,14.3-4.8,2.2,1.1,3.5,2.9,4.4,5.2.1.3,0,.6-.4.6Z"></path><path class="st3" d="M338.9,231.71c-1.9-3.9-4.7-6.7-8.8-8.4-3.5-1.5-7.1-1.6-10.8-1.2-2.3.2-4.5,1-6.6,2.1-9.7,5.3-13.4,16.1-10.6,25.5,1.2,4.2,3.8,7.3,7.6,9.4,2.6,1.5,5.5,2.1,8.5,2.3,4.5.3,8.8-.5,12.7-2.6,2.3-1.2,4.5-2.8,6.1-5.2-2.5-1.5-5.1-2.8-7.7-4-.4-.2-.8,0-1.1.3-.6.6-1.4,1-2.2,1.4-3,1.5-6.2,2-9.5,1.1-3.7-1-5.6-4-6-7.3-.1-.5.2-.7.7-.8h28.3c.8,0,1-.2,1.1-1,.4-4,.1-7.9-1.7-11.6ZM330.2,237.51h-17.2c-.8,0-1.1-.4-.7-1,2.9-5.6,9.8-7.6,14.9-4.6,1.9,1.1,3,2.8,3.8,4.8.1.4-.2.8-.8.8Z"></path><path class="st3" d="M442.7,226.01c.8-.6,1.6-1.2,2.5-1.7,3.4-2.2,7-3,11-2.1,4.6,1,7.8,4.7,8.1,9.4.1,1.4,0,2.9-.1,4.3-.4,3.6-.9,7.1-1.4,10.7-.6,4.2-1.1,8.4-1.7,12.6-.2,1.2-.2,1.3-1.5,1.3h-7c-.6,0-.9-.3-.8-.9.1-1,.2-2.1.3-3.1.8-6,1.7-12,2.5-18,.2-1.3.2-2.7.1-4.1-.1-2.2-1.6-3.6-3.8-3.9-3.2-.4-5.6,1-7.6,3.3-1.3,1.5-2.1,3.4-2.5,5.4-.9,3.8-1.4,7.7-1.9,11.6-.3,2.9-.7,5.7-1.1,8.5-.1,1-.4,1.2-1.4,1.2h-7c-.9,0-1.1-.3-1-1.2.3-2.2.6-4.4.9-6.6.8-5.5,1.5-11.1,2.2-16.6.5-3.8,1-7.6,1.5-11.4.6-4,1.2-8,1.8-12.1.2-1.1.3-2.2.4-3.3.1-.5.3-.9.9-.9h7.7c.5,0,.7.3.7.8-.1.6-.1,1.1-.2,1.7-.7,4.7-1.3,9.3-2,14,.1.3-.1.7.4,1.1Z"></path><path class="st3" d="M515.8,225.91c.7-.5,1.4-.9,2.1-1.4,2.8-2,6-2.9,9.5-2.7,4.4.3,7.5,2.5,9.3,6.5.5,1.2.7,2.5.7,3.7.1,3.1-.3,6.2-.7,9.3-.4,3.2-.9,6.3-1.3,9.5-.4,2.8-.7,5.5-1.1,8.3-.2,1.1-.4,1.3-1.3,1.3h-7c-1,0-1.2-.3-1-1.4.4-2.6.8-5.2,1.1-7.8.6-4.8,1.5-9.6,1.8-14.5.1-1,.2-1.9,0-2.9-.4-2-1.7-3.2-3.7-3.5-2.4-.3-4.4.4-6.2,1.9-1.9,1.6-3.1,3.6-3.7,6-.9,3.4-1.4,6.9-1.8,10.4-.4,3.5-.9,7-1.4,10.4-.2,1.1-.3,1.3-1.3,1.3h-7c-.9,0-1.1-.3-1-1.2.3-2.9.7-5.7,1.1-8.5.7-5.5,1.5-10.9,2.2-16.4.9-6.4,1.7-12.8,2.6-19.2.3-2,.6-3.9.9-5.9.1-.6.4-.8,1-.8h7.4c.7,0,.9.2.8.9-.2,2.1-.5,4.1-.8,6.2-.4,3-.8,6-1.2,9-.2.5-.3.9,0,1.5Z"></path><path class="st3" d="M483.6,261.71c-6.6.1-11.4-2.8-15.4-7.4-.5-.5-.9-1.1-1.3-1.7-.3-.5-.2-.9.2-1.3,1.9-1.5,3.9-3.1,5.8-4.6.8-.6,1-.6,1.6.1.5.7,1.1,1.4,1.6,2,1.4,1.5,3,2.9,5.1,3.4,1.6.4,3.2.5,4.7-.2,2.5-1,4-4.2,3-6.5-.6-1.5-1.4-2.9-2.4-4.1-1.4-1.6-2.8-3.1-4.2-4.6-1.8-1.9-3.6-3.9-5.2-6-1.5-1.9-2.5-3.9-3.2-6.1-2.1-7,2.8-15.5,10.9-16.4,6.9-.7,12.3,1.8,16.6,7.1.7.8.7,1.2,0,1.8-1.8,1.7-3.7,3.3-5.6,4.9-.3.3-.7.3-1,0-.8-.8-1.5-1.6-2.3-2.4-1.2-1.1-2.5-2-4.1-2.4-1.4-.4-2.7,0-3.9.8-1.4,1-1.9,2.8-1.1,4.5.5,1,1,2,1.8,2.8,2.2,2.4,4.4,4.9,6.6,7.3,2,2.2,3.9,4.4,5.2,7.1,2.1,4,2.6,8.2,1,12.5-1.3,3.6-3.9,6.2-7.3,7.9-2.3,1.1-4.8,1.6-7.1,1.5Z"></path><path class="st3" d="M411.9,260.41h-3.8c-.5,0-.7-.3-.7-.8s.1-1,.1-1.4c.4-2.8.8-5.5,1.2-8.3.6-4.2,1.2-8.4,1.8-12.5.2-1.8.5-3.6.6-5.5.1-1-.1-1.1-1.1-1.1-.8,0-1.6,0-2.4-.1-.6,0-.9-.3-.8-1,.3-2,.6-4.1.9-6.2.1-.6.4-.8,1-.9h2.6c.9,0,1.1-.2,1.2-1.1.5-3.5,1-7.1,1.5-10.7,0-.4.1-.8.2-1.2.1-.5.4-.9,1-.9h7.7c.5,0,.7.4.6.8-.4,2.7-.7,5.4-1.1,8.1-.2,1.3-.4,2.7-.5,4-.1.6.2.9.8.9h3.8c.8,0,1.1.2,1,1-.2,2-.5,4-.9,5.9-.2,1-.3,1.1-1.2,1.1h-3.8c-.5,0-.9.3-1,.8-.1,1-.2,2.1-.4,3.1-.9,6.7-1.8,13.4-2.8,20.1-.2,1.5-.4,3-.7,4.5-.1.9-.4,1.1-1.2,1.1-1.3.4-2.5.4-3.6.3,0,.1,0,0,0,0Z"></path><path class="st3" d="M391.8,260.41h-3.6c-.5,0-.8-.3-.7-.8,0-.9.1-1.8.2-2.6.9-6.2,1.7-12.3,2.6-18.5.7-5.2,1.4-10.4,2.1-15.6.6-4.6,1.3-9.1,2-13.7.1-.4.2-.8.7-.8h7.9c.5,0,.7.4.6.8-.2,1.9-.5,3.8-.7,5.7-.9,6.2-1.8,12.3-2.6,18.5-.7,5.3-1.4,10.6-2.1,15.9-.4,3.3-.9,6.6-1.4,10-.2,1.1-.3,1.2-1.4,1.3-1.2-.1-2.4-.1-3.6-.2,0,.1,0,0,0,0Z"></path><path class="st3" d="M413.5,16.91c-.2-4.7,2.6-9.3,7.4-11.2,5-2,10.7-1.2,14.5,4,5.4,7.4,1.5,16.6-5.7,19.1-4.4,1.5-8.4.6-11.8-2.3-2.9-2.5-4.4-5.7-4.4-9.6Z"></path><path class="st3" d="M596.7,223.01c-.1,1.2-.2,2.3-.4,3.5.7.2.8-.4,1.1-.7,1-1.1,2.1-2.2,3.4-3,1.8-1,3.7-1.4,5.8-.8.7.2,1,.6.7,1.2-.9,2.2-1.8,4.4-2.7,6.6-.2.6-.6.9-1.3.7-1.5-.4-2.8.3-3.9,1.2-1.1,1-2,2.1-2.5,3.5-.7,1.9-1.2,3.8-1.6,5.7-.9,4.4-1.2,8.8-1.9,13.3-.2,1.7-.4,3.3-.6,5-.1.9-.3,1.1-1.2,1.1h-7.2c-.9,0-1.1-.3-1-1.2.3-2.5.7-5,1.1-7.6.6-4.4,1.2-8.9,1.8-13.3.6-4.6,1.3-9.2,1.9-13.7.1-.4.1-.8.2-1.2.1-.4.4-.7.8-.7,1.1,0,6.3.2,7.5.4Z"></path><path class="st1" d="M211.5,209.31c.5,2,.4,2.1-1.2,3-1,.5-2,1-3.2.8-1.1-.1-2.1,0-3,.5-2.1.9-4.2,1.4-6.5,1.5-.4,0-.8.2-1.1.3-.3,0-.8.1-.9,0-.9-.8-1.7-.5-2.5.1-1.3-.1-2.3.5-3.4,1-.5.2-1.1.4-1.6.5-3.1.1-6.1.7-9.2,1.4-2.3.5-4.2-1.8-3.9-3.9.2-1.1,1.2-1.8,2.2-1.2.7.4,1.4.3,2.1.4-.4.5-1,.4-1.5.5-.3.1-.6.3-.6.7,0,.5,0,1.1.6,1.5.2.1.5.1.7,0,5.2-.9,10.3-1.8,15.5-2.7,4-.7,8-1.3,12-2,1-.2,2-.5,2.9-1,.9-.5,1.8-.9,2.6-1.4Z"></path><path class="st1" d="M241.3,184.91c0-.6-.2-1-.5-1.5-.8-1-.7-1.5.3-2.4.5-.5.3-.7-.1-1.1-.9-.9-.8-1.6,0-2.5.3-.3.6-.5.9-.8.5-.5.6-2,.1-2.5-.5-.6-1.3-.9-1.6-1.7-.3-.7-.7-1.4-1.1-2.2-1.1.9-2.1,1.8-3.1,2.6-.4.3-.6.7-.9,1.1-.3.5-.7,1.1-1,1.6-.6,1-1.3,1.8-2.4,2.2-.2.1-.5.3-.4.5.3,1.3-.5,2.3-.7,3.5-.2,1.7-1.1,3.1-1.9,4.6-.3.6-.8,1.2-1.6,1.4-.6.1-.8.8-1.3,1v-.5c1.9-5.1,3.9-10.1,6.9-14.6.9-1.4,2.2-2.5,3.6-3.4s2.9-.7,4.4-.5c.6.1,1.1.6,1.3,1.2.3.8.6,1.6.6,2.5,0,1.2.1,2.4,0,3.6-.3,2.5-.5,5-1.1,7.5-.1.2-.3.3-.4.4Z"></path><path class="st1" d="M190.4,198.71c.1-.2.2-.4.5-.4.3.5.8.5,1.3.4,3.2-.5,6.4-1.1,9.6-1.7,2-.3,4-.3,6-.1,1.3.1,2.3,1,3.2,2,1,1,1.1,2.3,1.4,3.5.2,1-.2,1.9-.8,2.6-.9-.7-1.7-1.4-1.5-2.8.1-.6-.2-1.1-.6-1.5-.7-.7-1.3-1.4-1.5-2.4-.7.1-1.2.3-1.8.3-.9.1-1.8,0-2.3-.9-.4-.6-.9-.6-1.5-.5s-1.2.3-1.9.4c-.2,0-.6.1-.6.2-.4,1.3-1.5,1.2-2.5,1.3-.4,0-.7.4-1.1.5-.7.3-1.3.6-2,.8-1.2.2-2.4.3-3.1-1-.2-.2-.5-.4-.8-.7Z"></path><path class="st1" d="M141,254.91c1.7-.8,3.1-.2,4.2,1.1.6.6,1.2,1.3,1.9,1.8.6.5,1.2.5,1.6-.2.5-.8.9-1.7,2-2,.2,0,.3-.4.4-.6.2-.5.2-.9.4-1.4s.5-1,1.1-1.2c.5-.2,1-.5,1.6-.2.5.3.9-.1,1.4-.3-.2.9-.9,1.5-1.5,2.1-1.9,2.1-3.8,4.3-5.4,6.7-.5.8-.9.8-1.5.2-2.2-1.9-4.4-3.7-6.2-6Z"></path><path class="st1" d="M238.4,200.71c-.1-.3-.2-.7-.4-.8-.9-.7-.8-1.5-.4-2.5.4-1.1.9-2.4.5-3.6,0-.1-.1-.4-.1-.5,1.1-1.3.3-3,.8-4.5.2-.7.5-1.4,1.1-1.7.7-.4.8-.8.6-1.6-.1-.5.4-.5.8-.6.1,1.9-.4,3.8-.7,5.6-.5,3.1-1.1,6.2-1.7,9.3-.1.4-.3.7-.5.9Z"></path><path class="st1" d="M177,240.01c.3-.5.8-.5,1.3-.5.6,0,1.1-.2,1.4-.7,1-1.5,2.6-1.3,4.1-1.6.7-.2,1.1.5,1.5,1s.8.4,1.2,0c.3-.3.5-.7.8-.9.8-.8,1.6-.8,2.5.1.1.1.2.3.3.4.5.4.9.5,1.2,0,.4-.5.8-.9,1.4-1.2.5-.2,1-.3,1.3.2.4.7,1,1,1.8.9-.2.1-.4.3-.6.4-1.8.2-3.6.5-5.4.6-1.4.1-2.7.3-4,.5-2,.3-4.1.3-6.1.7-.9.1-1.8.1-2.7.1Z"></path><path class="st1" d="M225.4,189.71c.3.6.6,1.1.5,1.8-.1,1.2-.5,2.2-1.7,2.6-1,.4-1.8,1-2.4,1.8-.2.3-.5.7-.9.8-1,.3-1.6.8-2,1.8-.3.7-1.2,1-2.1.8-.4-.1-.7-.3-1.1-.5.4-.8,1.1-1.3,1.8-1.9,1.6-1.3,3.2-2.6,4.8-3.9,1.2-1,2.3-2.1,3.1-3.3Z"></path><path class="st1" d="M219.3,221.41c-.1-.3-.1-.6-.2-.9-.2-.4-.2-.8.1-1.1,1.2-1.4,2.1-3,3.7-4,.8-.5,1.4-1.2,2.1-1.9,1-1,2.1-1.4,3.4-.8-1.9,2.4-4.2,4.4-6.4,6.4-.8.9-1.5,1.9-2.7,2.3Z"></path><path class="st1" d="M185.7,212.71c.7-.6,1.6-.9,2.3-1.6s1.8-.8,2.9-.8c.6,0,.9.6,1.5.7.7.1.7-.8,1.3-.9.1,0,.4-.1.5,0,.8.5,1.4,0,1.9-.5s1.1-.6,1.7-.4c.2.1.5.2.7.1,1.4-.8,2.5.2,3.7.7-1.2.7-2.6.6-3.9.9-3.6.8-7.2,1-10.8,1.9-.7,0-1.3-.1-1.8-.1Z"></path><path class="st1" d="M215.4,199.31c-.2.6-.6,1.2.2,1.6.3.1.5.4.7.6.4.4.5.8.4,1.3s-.4.9-.3,1.4c.1,1.5-.6,2.5-1.5,3.6-.7.9-1.4,1.2-2.4,1.1h-.5c.2-.3.3-.6.5-.8,1.6-2,2.3-4.3,2-6.9v-1.2c.1-.5.5-.7.9-.7Z"></path><path class="st1" d="M233.2,208.01c-.1-.3-.1-.6-.2-.9-.5-1-.1-1.9.5-2.4,1.3-.9,2.1-2.3,3.5-3.1.5-.3,1-.5,1.5-.8-.3,2.1-1.9,3.6-3.1,5.1-.6.8-1.3,1.6-2.2,2.1Z"></path><path class="st1" d="M158.3,249.21c0-.6-.5-1.2-.1-1.8.4-.7.9-1.3,1.7-1.6.2-.1.5-.2.6-.3,1.4-1.5,3.1-1.8,5-1.6-.3.3-.5.6-.8.8-1.8,1-3.4,2.2-4.9,3.7-.5.4-.9.7-1.5.8Z"></path><path class="st1" d="M199.1,237.11c.4-.4,1-.6,1.2-1.1,1.1-2.2,3.4-2.2,5.3-2.7.5-.1,1.1,0,1.7,0-.2,1.1-1.2,1.5-2,1.8-2,1-4,1.9-6.2,2Z"></path><path class="st1" d="M167.4,202.61c.1,1.4-.5,2.4-1.7,3.1-.8.5-1.6,1-2.4,1.5-.8.4-1.7.2-2.6.2,1.7-2.3,4.1-3.7,6.7-4.8Z"></path><path class="st1" d="M158.8,209.31c.8,2,.6,2.5-1.1,3.4-.3.2-.8.3-1,.6-.5,1-1.4.9-2.2.9v-.5c.7-.3,1.1-.9,1.5-1.5.8-1.1,1.6-2.1,2.8-2.9Z"></path><path class="st1" d="M205.8,209.31c-.1-1.1.2-2,1.4-2.4.1,0,.3-.1.4-.2,1-.7,2-.7,3.1-.3-1.2,1.9-2.9,2.6-4.9,2.9Z"></path><path class="st1" d="M171.7,200.21c.1.1.2.1.1.3,0,.2-.1.5-.1.7-.3,2-1.5,2.7-3.3,1.9-.4-.2-.7-.4-1.1-.5.6-.7,1.4-1,2.2-1.2.9-.3,1.6-.7,2.2-1.2Z"></path><path class="st1" d="M169.3,242.01c.2-.4.4-.9.6-1.2.9-1.4,1.9-1.5,3.3-.5.2.2.6.2.8.4-.1.1-.2.2-.4.3-1.3.2-2.8.6-4.3,1Z"></path><path class="st1" d="M165.5,243.91c.1-.4.3-.9.5-1.3.3-1,.6-1.2,1.6-1.1.6.1,1.2.3,1.8.5-1.3.6-2.5,1.5-3.9,1.9Z"></path><path class="st1" d="M179.4,213.71c.1-.5.1-.9.8-.8.5.1,1.1.2,1.6.3-.6.7-1.5.4-2.4.5Z"></path><path class="st7" d="M162.6,186.81c0,.3,0,.6-.1.9,0,.1-.2.3-.3.3-.3.1-.5-.1-.5-.3-.1-.3,0-.6-.1-.9.4-.3.7-.3,1,0Z"></path><path class="st4" d="M162.6,186.81h-.9v-1.4h.9v1.4Z"></path><path class="st1" d="M154.5,213.71c-.6-.7-.5-1.6-.4-2.4.6.7.4,1.5.4,2.4Z"></path><path class="st2" d="M75.4,157.51c.3-.3.6-.6.9-.9.1.5,0,.9-.3,1.3-.1.2-.2.5-.5.2-.1-.1-.1-.4-.1-.6Z"></path><path class="st5" d="M567,257.31c.1-.1.1-.3.2-.4.5-.3.8-.2.8.2,0,.5,0,.9-.4,1.2-.1-.3-.1-.8-.6-1Z"></path><path class="st1" d="M202.9,209.81c.7-.8,1.6-.4,2.4-.5-.7.7-1.5.5-2.4.5Z"></path><path class="st1" d="M182.8,213.21c.5-.7,1.3-.4,2-.4-.6.5-1.3.4-2,.4Z"></path><path class="st1" d="M174.1,240.61c.5-.7,1.3-.4,2-.5-.5.6-1.3.4-2,.5Z"></path><path class="st1" d="M196.2,237.61c.5-.7,1.3-.4,2-.4-.6.6-1.3.4-2,.4Z"></path><path class="st0" d="M136.7,93.41h-.4v-.7c0-.1.2-.2.2-.4.1.1.2.3.2.4v.7Z"></path><path class="st2" d="M74.9,155.61c.5.4.5.9.4,1.5-.5-.4-.5-.9-.4-1.5Z"></path><path class="st1" d="M225.9,188.71c0,.4-.1.8-.5,1,.1-.4.1-.8.5-1Z"></path><path class="st1" d="M211.1,206.01c0-.4.1-.8.5-1,0,.5-.1.8-.5,1Z"></path><path class="st1" d="M231.2,209.91l.5-.5-.5.5Z"></path><path class="st1" d="M230.8,210.31l.5-.5-.5.5Z"></path><path class="st1" d="M217.3,223.31c.2-.2.3-.3.5-.5,0,.3-.2.4-.5.5Z"></path><path class="st1" d="M231.7,209.41l.5-.5-.5.5Z"></path><path class="st1" d="M212,208.91c-.2.2-.3.3-.5.5.2-.2.4-.4.5-.5Z"></path><path class="st1" d="M216.9,223.81c.2-.2.3-.3.5-.5-.2.2-.4.3-.5.5Z"></path><path class="st1" d="M216.4,224.31c.2-.2.3-.3.5-.5-.2.1-.4.3-.5.5Z"></path><path class="st1" d="M215.9,224.71c.2-.2.3-.3.5-.5-.2.2-.3.4-.5.5Z"></path><path class="st1" d="M215.4,225.21c.2-.2.3-.3.5-.5-.2.2-.3.4-.5.5Z"></path><path class="st1" d="M214.9,225.71c.2-.2.3-.3.5-.5-.1.2-.3.3-.5.5Z"></path><path class="st1" d="M214.4,226.21c.2-.2.3-.3.5-.5-.1.2-.3.3-.5.5Z"></path><path class="st1" d="M214,226.71c.2-.2.3-.3.5-.5-.2.1-.4.3-.5.5Z"></path><path class="st1" d="M213.5,227.11c.2-.2.3-.3.5-.5-.2.2-.3.4-.5.5Z"></path><path class="st1" d="M213,227.61c.2-.2.3-.3.5-.5-.1.2-.3.4-.5.5Z"></path><path class="st1" d="M212.5,228.11c.2-.2.3-.3.5-.5-.1.2-.3.3-.5.5Z"></path><path class="st1" d="M212.1,228.61c.2-.2.3-.3.5-.5-.2.1-.4.3-.5.5Z"></path><path class="st1" d="M211.6,229.11c.2-.2.3-.3.5-.5-.2.1-.4.3-.5.5Z"></path><path class="st1" d="M211.1,229.51c.2-.2.3-.3.5-.5-.2.2-.3.4-.5.5Z"></path><path class="st1" d="M210.6,230.01c.2-.2.3-.3.5-.5-.2.2-.3.4-.5.5Z"></path><path class="st1" d="M210.1,230.51c.2-.2.3-.3.5-.5-.1.2-.3.3-.5.5Z"></path><path class="st1" d="M209.7,231.01c.2-.2.3-.3.5-.5-.2.1-.4.3-.5.5Z"></path><path class="st1" d="M159.2,208.91c-.2.2-.3.3-.5.5.1-.3.3-.5.5-.5Z"></path><path class="st1" d="M232.2,208.91l.5-.5-.5.5Z"></path><path class="st1" d="M159.7,208.41c-.2.2-.3.3-.5.5.2-.2.4-.4.5-.5Z"></path><path class="st1" d="M232.7,208.41l.5-.5c-.2.2-.3.4-.5.5Z"></path><path class="st1" d="M209.2,231.51c.2-.2.3-.3.5-.5-.2.1-.4.3-.5.5Z"></path><path class="st1" d="M208.7,231.91c.2-.2.3-.3.5-.5-.2.2-.3.4-.5.5Z"></path><path class="st1" d="M208.2,232.41c.2-.2.3-.3.5-.5-.1.2-.3.3-.5.5Z"></path><path class="st1" d="M207.7,232.91c.2-.2.3-.3.5-.5,0,.3-.2.4-.5.5Z"></path><path class="st1" d="M207.3,233.41c.2-.2.3-.3.5-.5-.2.1-.4.3-.5.5Z"></path><path class="st1" d="M160.2,207.91c-.2.2-.3.3-.5.5.2-.2.3-.3.5-.5Z"></path><path class="st1" d="M160.7,207.41c-.2.2-.3.3-.5.5.2-.2.3-.3.5-.5Z"></path><path class="st1" d="M218.3,222.31c.2-.2.3-.3.5-.5-.2.2-.3.4-.5.5Z"></path><path class="st1" d="M210.6,206.51c.2-.2.3-.3.5-.5-.2.2-.3.3-.5.5Z"></path><path class="st1" d="M218.8,221.91c.2-.2.3-.3.5-.5-.1.2-.3.4-.5.5Z"></path><path class="st1" d="M230.3,210.81l.5-.5c-.2.2-.3.4-.5.5Z"></path><path class="st1" d="M215.9,198.81c-.2.2-.3.3-.5.5.1-.2.3-.3.5-.5Z"></path><path class="st1" d="M128.9,243.01c.3,0,.5.2.6.5-.2-.2-.4-.4-.6-.5Z"></path><path class="st1" d="M129.5,243.41c.2.2.3.3.5.5-.2-.1-.4-.3-.5-.5Z"></path><path class="st1" d="M130,243.91c.2.2.3.3.5.5-.2-.2-.4-.3-.5-.5Z"></path><path class="st1" d="M228.4,212.71l.5-.5-.5.5Z"></path><path class="st1" d="M130.4,244.41c.2.2.3.3.5.5-.2-.1-.4-.3-.5-.5Z"></path><path class="st1" d="M130.9,244.91c.2.2.3.3.5.5-.1-.2-.3-.4-.5-.5Z"></path><path class="st1" d="M131.4,245.31c.2.2.3.3.5.5-.2-.1-.3-.3-.5-.5Z"></path><path class="st1" d="M131.9,245.81c.2.2.3.3.5.5-.2-.2-.3-.3-.5-.5Z"></path><path class="st1" d="M132.4,246.31c.2.2.3.3.5.5-.2-.2-.4-.3-.5-.5Z"></path><path class="st1" d="M132.9,246.81c.2.2.3.3.5.5-.2-.2-.4-.4-.5-.5Z"></path><path class="st1" d="M133.3,247.31c.2.2.3.3.5.5-.1-.2-.3-.4-.5-.5Z"></path><path class="st1" d="M133.8,247.71c.2.2.3.3.5.5-.2-.1-.3-.3-.5-.5Z"></path><path class="st1" d="M134.3,248.21c.2.2.3.3.5.5-.2-.1-.4-.3-.5-.5Z"></path><path class="st1" d="M134.8,248.71c.2.2.3.3.5.5-.2-.2-.4-.3-.5-.5Z"></path><path class="st1" d="M135.2,249.21c.2.2.3.3.5.5-.1-.2-.3-.4-.5-.5Z"></path><path class="st1" d="M157.8,249.71c.2-.2.3-.3.5-.5-.1.1-.3.3-.5.5Z"></path><path class="st1" d="M135.7,249.61c.2.2.3.3.5.5-.1-.1-.3-.3-.5-.5Z"></path><path class="st1" d="M157.4,250.11c.2-.2.3-.3.5-.5-.2.2-.4.4-.5.5Z"></path><path class="st1" d="M229.8,211.31l.5-.5-.5.5Z"></path><path class="st1" d="M228.8,212.31l.5-.5-.5.5Z"></path><path class="st1" d="M136.2,250.11c.2.2.3.3.5.5-.1-.1-.3-.3-.5-.5Z"></path><path class="st1" d="M156.9,250.61c.2-.2.3-.3.5-.5-.2.2-.3.4-.5.5Z"></path><path class="st1" d="M136.7,250.61c.2.2.3.3.5.5-.2-.2-.3-.3-.5-.5Z"></path><path class="st1" d="M156.4,251.11c.2-.2.3-.3.5-.5-.2.2-.3.4-.5.5Z"></path><path class="st1" d="M137.2,251.11c.2.2.3.3.5.5-.2-.2-.4-.4-.5-.5Z"></path><path class="st1" d="M155.9,251.61c.2-.2.3-.3.5-.5-.1.2-.3.3-.5.5Z"></path><path class="st1" d="M137.6,251.61c.2.2.3.3.5.5-.1-.2-.3-.4-.5-.5Z"></path><path class="st1" d="M155.4,252.11c.2-.2.3-.3.5-.5-.1.1-.3.3-.5.5Z"></path><path class="st1" d="M138.1,252.01c.2.2.3.3.5.5-.1-.1-.3-.3-.5-.5Z"></path><path class="st1" d="M229.3,211.81l.5-.5-.5.5Z"></path><path class="st1" d="M138.6,252.51c.2.2.3.3.5.5-.2-.1-.3-.3-.5-.5Z"></path><path class="st1" d="M139.1,253.01c.2.2.3.3.5.5-.2-.2-.3-.3-.5-.5Z"></path><path class="st1" d="M139.6,253.51c.2.2.3.3.5.5-.2-.2-.3-.4-.5-.5Z"></path><path class="st1" d="M140.1,254.01c.2.2.3.3.5.5-.2-.2-.4-.4-.5-.5Z"></path><path class="st1" d="M140.5,254.41c.2.2.3.3.5.5-.1-.1-.3-.3-.5-.5Z"></path><path class="st1" d="M217.8,222.81c.2-.2.3-.3.5-.5-.2.2-.3.4-.5.5Z"></path></svg>